<svg width="16" height="30" viewBox="0 0 16 30" fill="none" xmlns="http://www.w3.org/2000/svg">
<g clip-path="url(#clip0_6511_2549)">
<g clip-path="url(#clip1_6511_2549)">
<path fill-rule="evenodd" clip-rule="evenodd" d="M6.4629 15.0518V20.7809C6.4629 20.8583 6.52742 20.9357 6.61774 20.9357H8.74677C8.82419 20.9357 8.90161 20.8712 8.90161 20.7809V14.9486H10.4371C10.5145 14.9486 10.579 14.8841 10.5919 14.8067L10.721 13.0647C10.7339 12.9744 10.6565 12.897 10.5661 12.897H8.88871V11.6583C8.88871 11.3615 9.12097 11.1292 9.41774 11.1292H10.6048C10.6823 11.1292 10.7597 11.0647 10.7597 10.9744V9.23248C10.7597 9.15506 10.6952 9.07764 10.6048 9.07764H8.59194C7.41774 9.07764 6.4629 10.0325 6.4629 11.2067V12.897H5.40484C5.32742 12.897 5.25 12.9615 5.25 13.0518V14.8067C5.25 14.8841 5.31452 14.9615 5.40484 14.9615H6.4629V15.0518Z" fill="white"/>
</g>
</g>
<defs>
<clipPath id="clip0_6511_2549">
<rect width="16" height="30" fill="white"/>
</clipPath>
<clipPath id="clip1_6511_2549">
<rect width="16" height="30" fill="white"/>
</clipPath>
</defs>
</svg>
