<svg width="16" height="30" viewBox="0 0 16 30" fill="none" xmlns="http://www.w3.org/2000/svg">
<g clip-path="url(#clip0_6511_2560)">
<g clip-path="url(#clip1_6511_2560)">
<path d="M11.2514 11.3354C10.8514 11.3354 10.5288 11.658 10.5288 12.058C10.5288 12.458 10.8514 12.7806 11.2514 12.7806C11.6514 12.7806 11.974 12.458 11.974 12.058C11.974 11.658 11.6514 11.3354 11.2514 11.3354ZM8.02558 12.2645C6.34816 12.2645 4.98042 13.6322 4.98042 15.3096C4.98042 16.987 6.34816 18.3548 8.02558 18.3548C9.703 18.3548 11.0707 16.987 11.0707 15.3096C11.0707 13.6322 9.703 12.2645 8.02558 12.2645ZM8.02558 17.2709C6.94171 17.2709 6.07719 16.3935 6.07719 15.3225C6.07719 14.2386 6.95461 13.3741 8.02558 13.3741C9.10945 13.3741 9.97397 14.2515 9.97397 15.3225C9.97397 16.3935 9.09655 17.2709 8.02558 17.2709ZM14.1804 12.7806C14.1804 10.729 12.5159 9.06445 10.4643 9.06445H5.54816C3.49655 9.06445 1.83203 10.729 1.83203 12.7806V17.6967C1.83203 19.7483 3.49655 21.4128 5.54816 21.4128H10.4514C12.503 21.4128 14.1675 19.7483 14.1675 17.6967V12.7806H14.1804ZM13.0062 17.6838C13.0062 19.0903 11.8578 20.2386 10.4514 20.2386H5.54816C4.14171 20.2386 2.99332 19.0903 2.99332 17.6838V12.7806C2.99332 11.3612 4.12881 10.2257 5.54816 10.2257H10.4514C11.8578 10.2257 13.0062 11.3741 13.0062 12.7806V17.6838Z" fill="white"/>
</g>
</g>
<defs>
<clipPath id="clip0_6511_2560">
<rect width="16" height="30" fill="white"/>
</clipPath>
<clipPath id="clip1_6511_2560">
<rect width="16" height="30" fill="white"/>
</clipPath>
</defs>
</svg>
