<svg width="16" height="30" viewBox="0 0 16 30" fill="none" xmlns="http://www.w3.org/2000/svg">
<g clip-path="url(#clip0_6511_2565)">
<g clip-path="url(#clip1_6511_2565)">
<path d="M8.74723 17.8131C8.03755 17.7615 7.74077 17.4131 7.18593 17.0776C6.94077 18.3679 6.644 19.6195 5.96013 20.4711C5.75368 20.7163 5.35368 20.6002 5.34077 20.2776C5.23755 18.2131 5.94723 16.5744 6.29561 14.8582C5.63755 13.7357 6.37303 11.4905 7.77948 12.0453C9.50852 12.7292 6.28271 16.2002 8.45045 16.6389C10.7085 17.0776 11.6375 12.7163 10.2311 11.297C8.20529 9.24534 4.34723 11.2453 4.82464 14.1873C4.91497 14.7421 5.37948 15.0002 5.32787 15.555C5.28916 15.9034 4.94077 16.097 4.6311 15.955C3.74077 15.5421 3.4569 14.626 3.49561 13.4518C3.57303 11.2324 5.49561 9.67114 7.41819 9.45179C9.8569 9.18082 12.1408 10.3421 12.4505 12.6389C12.8117 15.2066 11.3537 18.0066 8.74723 17.8131Z" fill="white"/>
</g>
</g>
<defs>
<clipPath id="clip0_6511_2565">
<rect width="16" height="30" fill="white"/>
</clipPath>
<clipPath id="clip1_6511_2565">
<rect width="16" height="30" fill="white"/>
</clipPath>
</defs>
</svg>
