<svg width="16" height="30" viewBox="0 0 16 30" fill="none" xmlns="http://www.w3.org/2000/svg">
<g clip-path="url(#clip0_6511_2554)">
<g clip-path="url(#clip1_6511_2554)">
<path d="M13.7148 11.7224C13.3536 11.8901 12.9407 11.9933 12.5536 12.0578C12.7471 12.032 13.0181 11.6836 13.1342 11.5546C13.3019 11.3482 13.4439 11.103 13.5213 10.8449C13.5342 10.8191 13.5342 10.7933 13.5213 10.7804C13.4955 10.7675 13.4826 10.7804 13.4568 10.7804C13.0181 11.0127 12.5665 11.1933 12.0761 11.3095C12.0374 11.3224 12.0116 11.3095 11.9858 11.2836C11.9471 11.232 11.9084 11.1933 11.8697 11.1546C11.6632 10.9869 11.4439 10.8449 11.1987 10.7417C10.8761 10.6127 10.5148 10.5482 10.1665 10.574C9.83098 10.5998 9.49549 10.6901 9.19872 10.8449C8.90195 10.9998 8.63098 11.2191 8.41162 11.4901C8.19227 11.7611 8.02453 12.0836 7.94711 12.432C7.86969 12.7675 7.86969 13.0901 7.9213 13.4256C7.9342 13.4772 7.9213 13.4901 7.86969 13.4772C5.96001 13.2062 4.38582 12.5353 3.1084 11.0772C3.05678 11.0127 3.01807 11.0127 2.97936 11.0772C2.42453 11.9159 2.69549 13.2578 3.39227 13.9288C3.48259 14.0191 3.58582 14.1095 3.68904 14.1869C3.65033 14.1998 3.18582 14.1482 2.77291 13.9288C2.7213 13.8901 2.69549 13.9159 2.68259 13.9804C2.68259 14.0707 2.68259 14.1482 2.69549 14.2514C2.79872 15.103 3.39227 15.8901 4.19227 16.1869C4.28259 16.2256 4.39872 16.2643 4.50194 16.2772C4.3213 16.3159 4.12775 16.3417 3.59872 16.303C3.5342 16.2901 3.5084 16.3288 3.5342 16.3804C3.9213 17.4643 4.77291 17.7869 5.41807 17.9675C5.5084 17.9804 5.58582 17.9804 5.67614 18.0062C5.67614 18.0191 5.66324 18.0191 5.66324 18.0191C5.45678 18.3417 4.7213 18.5869 4.37291 18.703C3.75356 18.9224 3.06969 19.0127 2.41162 18.9482C2.3084 18.9353 2.28259 18.9353 2.25678 18.9482C2.23098 18.9611 2.25678 18.9869 2.28259 19.0127C2.41162 19.103 2.55356 19.1804 2.69549 19.2578C3.1084 19.4772 3.54711 19.6578 3.99872 19.7869C6.34711 20.432 9.00517 19.9546 10.7729 18.1998C12.1536 16.832 12.6439 14.9353 12.6439 13.0256C12.6439 12.9482 12.7342 12.9095 12.7858 12.8707C13.1471 12.5998 13.431 12.2772 13.7019 11.9159C13.7665 11.8385 13.7536 11.7611 13.7536 11.7353V11.7224C13.7536 11.6965 13.7665 11.6965 13.7148 11.7224Z" fill="white"/>
<path fill-rule="evenodd" clip-rule="evenodd" d="M5.66318 20.0324C5.70189 20.0324 6.63092 20.0324 5.66318 20.0324C5.65028 20.0324 5.79221 20.0324 5.66318 20.0324ZM5.66318 20.0324C5.46963 20.0324 5.65028 20.0324 5.66318 20.0324V20.0324ZM6.05028 20.0453C6.05028 20.0195 6.25673 20.0453 6.05028 20.0453C6.05028 20.0324 6.07608 20.0453 6.05028 20.0453ZM10.1277 10.6001C10.1148 10.613 10.1019 10.613 10.0761 10.6001C10.089 10.6001 10.1148 10.6001 10.1277 10.6001Z" fill="white"/>
</g>
</g>
<defs>
<clipPath id="clip0_6511_2554">
<rect width="16" height="30" fill="white"/>
</clipPath>
<clipPath id="clip1_6511_2554">
<rect width="16" height="30" fill="white"/>
</clipPath>
</defs>
</svg>
