<svg width="16" height="30" viewBox="0 0 16 30" fill="none" xmlns="http://www.w3.org/2000/svg">
<g clip-path="url(#clip0_6511_2570)">
<g clip-path="url(#clip1_6511_2570)">
<path d="M13.8325 13.4516C13.8325 12.0452 12.697 10.9097 11.2905 10.9097H4.7099C3.30345 10.9097 2.16797 12.0452 2.16797 13.4516V16.5484C2.16797 17.9548 3.30345 19.0903 4.7099 19.0903H11.2905C12.697 19.0903 13.8325 17.9548 13.8325 16.5484V13.4516ZM9.67765 15.1548L7.05829 16.6C6.94216 16.6645 6.83894 16.5742 6.83894 16.4452V13.4903C6.83894 13.3613 6.94216 13.271 7.05829 13.3355L9.70345 14.8452C9.81958 14.9226 9.79378 15.0903 9.67765 15.1548Z" fill="white"/>
</g>
</g>
<defs>
<clipPath id="clip0_6511_2570">
<rect width="16" height="30" fill="white"/>
</clipPath>
<clipPath id="clip1_6511_2570">
<rect width="16" height="30" fill="white"/>
</clipPath>
</defs>
</svg>
